<svg width="24" height="24" viewBox="0 0 24 24" fill="none" xmlns="http://www.w3.org/2000/svg">
<path d="M8.76421 8.66668C9.0189 7.94265 9.52162 7.33213 10.1833 6.94324C10.845 6.55435 11.623 6.41219 12.3795 6.54195C13.136 6.6717 13.8221 7.065 14.3164 7.65217C14.8107 8.23934 15.0812 8.98249 15.08 9.75001C15.08 11.9167 11.83 13 11.83 13M11.9167 17.3333H11.9275M22.75 11.9167C22.75 17.8998 17.8998 22.75 11.9167 22.75C5.93362 22.75 1.08337 17.8998 1.08337 11.9167C1.08337 5.93359 5.93362 1.08334 11.9167 1.08334C17.8998 1.08334 22.75 5.93359 22.75 11.9167Z" stroke="#1E1E1E" stroke-width="2.16667" stroke-linecap="round" stroke-linejoin="round"/>
</svg>
