<svg width="21" height="21" viewBox="0 0 21 21" fill="none" xmlns="http://www.w3.org/2000/svg">
<path d="M18.375 5.25V17.5C18.375 17.9641 18.1906 18.4092 17.8624 18.7374C17.5342 19.0656 17.0891 19.25 16.625 19.25H4.375C3.91087 19.25 3.46575 19.0656 3.13756 18.7374C2.80937 18.4092 2.625 17.9641 2.625 17.5V5.25L5.25 1.75H15.75L18.375 5.25ZM2.625 5.25H18.375M14 8.75C14 9.67826 13.6313 10.5685 12.9749 11.2249C12.3185 11.8813 11.4283 12.25 10.5 12.25C9.57174 12.25 8.6815 11.8813 8.02513 11.2249C7.36875 10.5685 7 9.67826 7 8.75" stroke="#1E1E1E" stroke-width="2" stroke-linecap="round" stroke-linejoin="round"/>
</svg>
