<svg width="502" height="48" viewBox="0 0 502 48" fill="none" xmlns="http://www.w3.org/2000/svg">
<path d="M33.0221 0.917236H20.2457L0 46.7812H13.235L16.8387 37.8705L20.6388 28.3046L26.5356 13.6281L32.4324 28.3046L36.2326 37.8705L39.8362 46.7812H53.3333L33.0221 0.917236Z" fill="#4F46E5"/>
<path d="M65.9598 46.3226C69.4323 47.2399 73.0359 47.6986 76.7706 47.6986C81.0949 47.6986 84.8295 47.0434 87.9089 45.733C90.9229 44.4226 93.2161 42.588 94.7885 40.3603C96.2955 38.1326 97.0817 35.6429 97.0817 32.891C97.0817 29.7461 96.23 27.1908 94.5265 25.3562C92.823 23.5217 90.8574 22.1458 88.5642 21.294C86.271 20.4422 83.3881 19.656 79.9155 18.8698C76.7706 18.2146 74.5429 17.6249 73.1669 16.9697C71.7255 16.38 71.0703 15.4627 71.0703 14.2178C71.0703 13.0385 71.66 12.0557 72.8394 11.2694C74.0187 10.4832 75.8533 10.0901 78.4741 10.0901C82.5363 10.0901 86.7951 11.2694 91.185 13.6282L95.1817 3.99672C92.954 2.68632 90.3332 1.70352 87.4503 1.04832C84.5019 0.39312 81.5535 0 78.5396 0C74.0842 0 70.3496 0.6552 67.3357 1.9656C64.3217 3.276 62.0285 5.11056 60.5216 7.33824C58.9491 9.56592 58.2284 12.1212 58.2284 14.873C58.2284 18.0835 59.0146 20.6388 60.7181 22.4734C62.3561 24.3734 64.3217 25.7494 66.6805 26.6011C68.9737 27.4529 71.8565 28.2391 75.3291 28.9598C78.4741 29.6806 80.7018 30.3358 82.1432 30.991C83.5846 31.6462 84.3054 32.5634 84.3054 33.8738C84.3054 36.3636 81.8156 37.6085 76.8361 37.6085C74.2153 37.6085 71.529 37.2154 68.8426 36.3636C66.0908 35.5774 63.7321 34.4635 61.701 33.0876L57.4421 42.6535C59.6043 44.226 62.4217 45.4054 65.9598 46.3226Z" fill="#4F46E5"/>
<path d="M111.958 46.3226C115.43 47.2399 119.034 47.6986 122.768 47.6986C127.093 47.6986 130.827 47.0434 133.907 45.733C136.921 44.4226 139.214 42.588 140.786 40.3603C142.293 38.1326 143.08 35.6429 143.08 32.891C143.08 29.7461 142.228 27.1908 140.524 25.3562C138.821 23.5217 136.855 22.1458 134.562 21.294C132.269 20.4422 129.386 19.656 125.913 18.8698C122.768 18.2146 120.541 17.6249 119.165 16.9697C117.723 16.38 117.068 15.4627 117.068 14.2178C117.068 13.0385 117.658 12.0557 118.837 11.2694C120.017 10.4832 121.851 10.0901 124.472 10.0901C128.534 10.0901 132.793 11.2694 137.183 13.6282L141.179 3.99672C138.952 2.68632 136.331 1.70352 133.448 1.04832C130.5 0.39312 127.551 0 124.537 0C120.082 0 116.347 0.6552 113.333 1.9656C110.32 3.276 108.026 5.11056 106.519 7.33824C104.947 9.56592 104.226 12.1212 104.226 14.873C104.226 18.0835 105.012 20.6388 106.716 22.4734C108.354 24.3734 110.32 25.7494 112.678 26.6011C114.971 27.4529 117.854 28.2391 121.327 28.9598C124.472 29.6806 126.7 30.3358 128.141 30.991C129.582 31.6462 130.303 32.5634 130.303 33.8738C130.303 36.3636 127.813 37.6085 122.834 37.6085C120.213 37.6085 117.527 37.2154 114.84 36.3636C112.089 35.5774 109.73 34.4635 107.699 33.0876L103.44 42.6535C105.602 44.226 108.419 45.4054 111.958 46.3226Z" fill="#4F46E5"/>
<path d="M152.648 0.917236V46.7812H165.621V0.917236H152.648Z" fill="#4F46E5"/>
<path d="M178.554 46.7812H191.265V39.0499L178.554 22.8664V46.7812ZM209.48 0.917236V9.23828L222.191 24.57V0.917236H209.48ZM209.48 25.3562L189.234 0.917236H178.554V7.0106L191.265 22.3423L211.511 46.7812H222.191V41.4741L209.48 25.2907V25.3562Z" fill="#4F46E5"/>
<path d="M262.498 0.917236H249.722L229.476 46.7812H242.711L246.315 37.8705L250.115 28.3046L256.012 13.6281L261.909 28.3046L265.709 37.8705L269.312 46.7812H282.81L262.498 0.917236Z" fill="#4F46E5"/>
<path d="M290.129 46.7812H303.102V31.0564H324.789V21.0319H290.129V46.7812ZM290.129 0.917236V10.9418H324.789V0.917236H290.129Z" fill="#4F46E5"/>
<path d="M361.532 0.917236H348.756L328.51 46.7812H341.745L345.349 37.8705L349.149 28.3046L355.046 13.6281L360.942 28.3046L364.743 37.8705L368.346 46.7812H381.843L361.532 0.917236Z" fill="#4F46E5"/>
<path d="M398.416 44.6846C402.216 46.7158 406.541 47.6986 411.389 47.6986C415.583 47.6986 419.317 46.9778 422.724 45.4709C426.066 44.0294 428.883 41.8673 431.111 39.0499L422.855 31.5806C419.841 35.1842 416.238 36.9533 412.044 36.9533C409.555 36.9533 407.327 36.4291 405.361 35.3153C403.396 34.267 401.889 32.6945 400.841 30.7289C399.792 28.7633 399.268 26.4701 399.268 23.8493C399.268 21.294 399.792 19.0008 400.841 17.0352C401.889 15.0696 403.396 13.4971 405.361 12.3833C407.327 11.335 409.555 10.7453 412.044 10.7453C416.238 10.7453 419.841 12.5798 422.855 16.1179L431.111 8.64864C428.883 5.8968 426.066 3.73464 422.724 2.22768C419.317 0.786242 415.583 0 411.389 0C406.541 0 402.216 1.04832 398.416 3.07944C394.616 5.11056 391.602 7.92792 389.44 11.5315C387.212 15.2006 386.164 19.2629 386.164 23.8493C386.164 28.4357 387.212 32.5634 389.44 36.167C391.602 39.8362 394.616 42.6535 398.416 44.6846Z" fill="#4F46E5"/>
<path d="M440.535 0.917236V46.7812H453.508V0.917236H440.535Z" fill="#4F46E5"/>
<path d="M466.441 0.917236V46.7812H501.298V36.4946H479.414V0.917236H466.441Z" fill="#4F46E5"/>
</svg>
